HIERARCHY
ROOT Root
{
	OFFSET 0.00000 0.00000 0.00000
	CHANNELS 6 Xposition Yposition Zposition Zrotation Xrotation Yrotation
	JOINT Hips
	{
		OFFSET 0 0 0	
		CHANNELS 3 Zrotation Xrotation Yrotation
		JOINT Spine
		{
			OFFSET 0 4 0	
			CHANNELS 3 Zrotation Xrotation Yrotation
			JOINT Spine1
			{
				OFFSET 0 19.4 0	
				CHANNELS 3 Zrotation Xrotation Yrotation
				JOINT Spine2
				{
					OFFSET 0 16.6 0	
					CHANNELS 3 Zrotation Xrotation Yrotation
					JOINT LeftCollar
					{
						OFFSET 0 10 0	
						CHANNELS 3 Zrotation Xrotation Yrotation
						JOINT LeftArm
						{
							OFFSET 15.6 -2 3	
							CHANNELS 3 Zrotation Xrotation Yrotation
							JOINT LeftForeArm
							{
								OFFSET 3.5 -27 -1	
								CHANNELS 3 Zrotation Xrotation Yrotation
								JOINT LeftHand
								{
									OFFSET 1 -27 1	
									CHANNELS 3 Zrotation Xrotation Yrotation
									End Site
									{
										OFFSET 0 -15 0
									}
								}
							}
						}
					}
					JOINT RightCollar
					{
						OFFSET 0 10 0	
						CHANNELS 3 Zrotation Xrotation Yrotation
						JOINT RightArm
						{
							OFFSET -15.6 -2 3	
							CHANNELS 3 Zrotation Xrotation Yrotation
							JOINT RightForeArm
							{
								OFFSET -3.5 -27 -1	
								CHANNELS 3 Zrotation Xrotation Yrotation
								JOINT RightHand
								{
									OFFSET -1 -27 1	
									CHANNELS 3 Zrotation Xrotation Yrotation
									End Site
									{
										OFFSET 0 -15 0
									}
								}
							}
						}
					}
					JOINT Neck
					{
						OFFSET 0 10 0	
						CHANNELS 3 Zrotation Xrotation Yrotation
						JOINT Head
						{
							OFFSET 0 12.7 3	
							CHANNELS 3 Zrotation Xrotation Yrotation
							End Site
							{
								OFFSET 0 12.7 3
							}
						}
					}
				}
			}
		}
	}
	JOINT LeftHip
	{
		OFFSET 0 0 0	
		CHANNELS 3 Zrotation Xrotation Yrotation
		JOINT LeftUpLeg
		{
			OFFSET 8.8 -6 0	
			CHANNELS 3 Zrotation Xrotation Yrotation
			JOINT LeftLeg
			{
				OFFSET 0 -39 2	
				CHANNELS 3 Zrotation Xrotation Yrotation
				JOINT LeftFoot
				{
					OFFSET 0 -43 -2	
					CHANNELS 3 Zrotation Xrotation Yrotation
					JOINT LeftFootFront
					{
						OFFSET 0 -7 8.5	
						CHANNELS 3 Zrotation Xrotation Yrotation
						End Site
						{
							OFFSET 0 -0.5 9
						}
					}
				}
				JOINT LeftHeel
				{
					OFFSET 0 -43 -2	
					CHANNELS 3 Zrotation Xrotation Yrotation
					End Site
					{
						OFFSET 0 -7.5 -5
					}
				}
			}
		}
	}
	JOINT RightHip
	{
		OFFSET 0 0 0	
		CHANNELS 3 Zrotation Xrotation Yrotation
		JOINT RightUpLeg
		{
			OFFSET -8.8 -6 0	
			CHANNELS 3 Zrotation Xrotation Yrotation
			JOINT RightLeg
			{
				OFFSET 0 -39 2	
				CHANNELS 3 Zrotation Xrotation Yrotation
				JOINT RightFoot
				{
					OFFSET 0 -43 -2	
					CHANNELS 3 Zrotation Xrotation Yrotation
					JOINT RightFootFront
					{
						OFFSET 0 -7 8.5	
						CHANNELS 3 Zrotation Xrotation Yrotation
						End Site
						{
							OFFSET 0 -0.5 9
						}
					}
				}
				JOINT RightHeel
				{
					OFFSET 0 -43 -2	
					CHANNELS 3 Zrotation Xrotation Yrotation
					End Site
					{
						OFFSET 0 -7.5 -5
					}
				}
			}
		}
	}
}
MOTION
Frames: 11
Frame Time: 0.025
0 95.87 0 -0 0 -0 0.42691 0.36058 2.6974 -0.11191 -0.92827 1.8303 -0.11191 -0.92827 1.8303 -0.095997 -0.77951 1.5376 -0 0 -0 -0.83056 -1.4409 2.4749 0.47349 3.169 -7.5951 -0 0 6.3574e-08 -0 0 -0 -2.0461 -1.8185 -9.1335 7.7509 -2.9538 -1.1437 -0 0 1.0672e-07 -0 0 -0 -0 0 -0 0.42691 0.36058 2.6974 0.0021809 0.86843 -1.9487 -0.57051 0.36571 -3.9601 -0 0 -0 -0 0 9.7133e-08 -0 0 -0 0.42691 0.36058 2.6974 -0.64823 0.76651 -1.8632 1.3287 -0.53328 -7.9385 -0 0 -0 -0 0 1.9468e-07 -0 0 -0 
0 95.872 0 -0 0 -0 0.43021 0.36334 2.6711 -0.11279 -0.94505 1.841 -0.11279 -0.94505 1.841 -0.096784 -0.79361 1.5466 -0 0 -0 -0.82302 -1.391 2.4461 0.47938 3.1671 -7.5779 -0.012153 -0.004107 0.0077134 -0 0 -0 -2.0627 -1.7833 -9.1524 7.7315 -2.9377 -1.1668 0.037328 -0.00058323 0.035287 -0 0 -0 -0 0 -0 0.43021 0.36334 2.6711 -0.0028807 0.8793 -1.9381 -0.58528 0.35279 -3.9569 -0 0 -0 -0 0 3.7519e-09 -0 0 -0 0.43021 0.36334 2.6711 -0.65196 0.77588 -1.8531 1.3243 -0.5323 -7.9312 -0 0 -0 -0 0 9.1714e-09 -0 0 -0 
0 95.873 0 -0 0 -0 0.43185 0.36687 2.6357 -0.11446 -0.96443 1.8558 -0.11446 -0.96443 1.8558 -0.098246 -0.80988 1.559 -0 0 -0 -0.81273 -1.3356 2.4048 0.48743 3.1654 -7.5585 -0.013144 -0.0039055 0.015429 -0 0 -0 -2.0804 -1.7445 -9.192 7.7051 -2.9168 -1.1941 0.050228 0.00097936 0.056316 -0 0 -0 -0 0 -0 0.43185 0.36687 2.6357 -0.0067888 0.88774 -1.9257 -0.5988 0.33857 -3.951 -0 0 -0 0 0 -3.2517e-08 -0 0 -0 0.43185 0.36687 2.6357 -0.65361 0.78787 -1.8389 1.3173 -0.52793 -7.9205 -0 0 -0 -0 0 1.4549e-07 -0 0 -0 
0 95.875 0 -0 0 -0 0.43033 0.36989 2.6004 -0.11697 -0.97577 1.8702 -0.11697 -0.97577 1.8702 -0.10039 -0.8194 1.5711 -0 0 -0 -0.80505 -1.3057 2.3566 0.4929 3.1638 -7.5412 -0.0044463 -0.00024707 0.025053 -0 0 -0 -2.0933 -1.7239 -9.2458 7.6816 -2.9006 -1.2172 0.048098 0.00285 0.066816 -0 0 -0 -0 0 -0 0.43033 0.36989 2.6004 -0.0073213 0.89185 -1.9182 -0.59733 0.33115 -3.9386 -0 0 -0 0 0 -2.9599e-08 -0 0 -0 0.43033 0.36989 2.6004 -0.65186 0.79871 -1.8245 1.3089 -0.51686 -7.9088 -0 0 -0 0 0 -2.0844e-07 -0 0 -0 
0 95.877 0 -0 0 -0 0.43022 0.37193 2.5688 -0.11909 -0.97574 1.8767 -0.11909 -0.97574 1.8767 -0.10218 -0.81937 1.5766 -0 0 -0 -0.80873 -1.3078 2.3108 0.49134 3.1596 -7.5224 0.0087583 0.0046355 0.040194 -0 0 -0 -2.1085 -1.7218 -9.2814 7.6654 -2.8966 -1.2343 0.041691 0.0016778 0.062623 -0 0 -0 -0 0 -0 0.43022 0.37193 2.5688 -0.0095403 0.89672 -1.9143 -0.58521 0.33896 -3.9208 -0 0 -0 -0 0 2.6264e-08 -0 0 -0 0.43022 0.37193 2.5688 -0.65269 0.80843 -1.8145 1.301 -0.4978 -7.8997 -0 0 -0 -0 0 1.4341e-07 -0 0 -0 
0 95.88 0 -0 0 -0 0.43349 0.3733 2.5495 -0.12119 -0.97187 1.873 -0.12119 -0.97187 1.873 -0.10393 -0.81611 1.5734 -0 0 -0 -0.82264 -1.3197 2.2633 0.48368 3.1511 -7.4999 0.019677 0.010134 0.055493 -0 0 -0 -2.1275 -1.7147 -9.2918 7.6606 -2.9043 -1.2389 0.032785 -0.0029725 0.043809 -0 0 -0 -0 0 -0 0.43349 0.3733 2.5495 -0.014971 0.90402 -1.9177 -0.58078 0.36541 -3.901 -0 0 -0 0 0 -5.753e-08 -0 0 -0 0.43349 0.3733 2.5495 -0.65849 0.81673 -1.8175 1.2961 -0.47222 -7.8947 -0 0 -0 0 0 -7.9624e-08 -0 0 -0 
0 95.882 0 -0 0 -0 0.43587 0.3751 2.5378 -0.12187 -0.96878 1.8606 -0.12187 -0.96878 1.8606 -0.10448 -0.81352 1.5631 -0 0 -0 -0.8432 -1.33 2.2248 0.47404 3.1368 -7.4767 0.024454 0.016604 0.063092 -0 0 -0 -2.148 -1.6956 -9.2779 7.6671 -2.9155 -1.2278 0.021987 -0.011264 0.023216 -0 0 -0 -0 0 -0 0.43587 0.3751 2.5378 -0.018551 0.90898 -1.9268 -0.58634 0.40139 -3.8751 -0 0 -0 -0 0 9.8384e-08 -0 0 -0 0.43587 0.3751 2.5378 -0.66303 0.82161 -1.8241 1.2932 -0.44318 -7.8928 -0 0 -0 -0 0 3.1058e-07 -0 0 -0 
0 95.885 0 -0 0 -0 0.43501 0.37808 2.5293 -0.11946 -0.96747 1.8403 -0.11946 -0.96747 1.8403 -0.10243 -0.81242 1.5459 -0 0 -0 -0.86972 -1.3371 2.2107 0.46357 3.1143 -7.4577 0.025674 0.025395 0.062624 -0 0 -0 -2.1737 -1.6708 -9.2465 7.6848 -2.9213 -1.2039 0.012093 -0.018967 0.013466 -0 0 -0 -0 0 -0 0.43501 0.37808 2.5293 -0.017639 0.90689 -1.9428 -0.59646 0.44346 -3.8389 -0 0 -0 -0 0 4.6274e-08 -0 0 -0 0.43501 0.37808 2.5293 -0.66032 0.8223 -1.8248 1.2879 -0.4131 -7.8925 -0 0 -0 0 0 -1.6759e-07 -0 0 -0 
0 95.888 0 -0 0 -0 0.43054 0.38066 2.5217 -0.1123 -0.96822 1.8231 -0.1123 -0.96822 1.8231 -0.096406 -0.81307 1.5315 -0 0 -0 -0.90786 -1.339 2.1931 0.44891 3.0812 -7.453 -0.001125 -0.0043885 -0.01183 -0 0 -0 -2.2091 -1.6417 -9.2342 7.7087 -2.926 -1.1726 0.0057221 -0.016303 0.015591 -0 0 -0 -0 0 -0 0.43054 0.38066 2.5217 -0.012247 0.9025 -1.9585 -0.60699 0.48863 -3.7994 -0 0 -0 0 0 -2.5013e-09 -0 0 -0 0.43054 0.38066 2.5217 -0.64747 0.82208 -1.8215 1.2766 -0.38126 -7.8917 -0 0 -0 0 0 -2.6264e-07 -0 0 -0 
0 95.891 0 -0 0 -0 0.42282 0.38207 2.5143 -0.10216 -0.96828 1.8098 -0.10216 -0.96828 1.8098 -0.087866 -0.81315 1.5204 -0 0 -0 -0.95378 -1.3428 2.1685 0.4333 3.0408 -7.4762 0.012192 0.0076164 -0.009862 -0 0 -0 -2.2445 -1.6176 -9.2405 7.7289 -2.929 -1.1491 0.0032368 -0.013425 0.030515 -0 0 -0 -0 0 -0 0.42282 0.38207 2.5143 -0.0044497 0.90444 -1.9681 -0.61515 0.53017 -3.7633 -0 0 -0 0 0 -7.5039e-08 -0 0 -0 0.42282 0.38207 2.5143 -0.62587 0.8228 -1.8183 1.2601 -0.34501 -7.8963 -0 0 -0 -0 0 2.026e-07 -0 0 -0 
0 95.894 0 -0 0 -0 0.41341 0.38511 2.5089 -0.092043 -0.96841 1.7968 -0.092043 -0.96841 1.7968 -0.079357 -0.81328 1.5094 -0 0 -0 -0.9901 -1.3437 2.1617 0.43662 3.0081 -7.541 0.019617 0.011278 -0.026003 -0 0 -0 -2.2647 -1.6005 -9.2518 7.7365 -2.929 -1.1403 0.0014128 -0.012945 0.047409 -0 0 -0 -0 0 -0 0.41341 0.38511 2.5089 0.0032313 0.9102 -1.9778 -0.62114 0.56791 -3.7257 -0 0 -0 -0 0 5.5445e-08 -0 0 -0 0.41341 0.38511 2.5089 -0.60197 0.81949 -1.8093 1.2446 -0.30219 -7.9154 -0 0 -0 -0 0 3.4268e-07 -0 0 -0 
